<svg width="225" height="128" viewBox="0 0 225 128" fill="none" xmlns="http://www.w3.org/2000/svg">
<path d="M51.888 66.22C51.336 76.708 46.276 85.54 35.604 85.54H19.044V22.06H27.324V21.6H1.84V22.06H10.212V85.54H1.84V86H52.348V66.22H51.888ZM62.5262 43.864V70.636C62.5262 83.332 68.7822 86.92 75.8662 86.92C85.0662 86.92 88.9302 78.088 90.1262 71.004V86H105.03V85.54H98.0382V43.404H83.0422V43.864H90.1262V66.128C90.1262 73.212 86.3542 85.816 77.7982 85.816C70.7142 85.816 70.5302 76.524 70.5302 71.924V43.404H55.5342V43.864H62.5262ZM144.371 77.168C142.623 81.768 137.931 86.46 130.111 86.46C119.163 86.46 116.219 73.672 116.219 64.748C116.219 55.824 117.507 42.944 129.651 42.944C137.103 42.944 140.691 47.268 140.691 50.672C140.691 53.708 137.287 54.168 137.287 57.664C137.287 59.688 138.851 60.976 140.599 60.976C143.267 60.976 144.555 58.768 144.555 55.824C144.555 47.912 137.839 42.576 129.651 42.576C115.575 42.576 107.755 51.96 107.755 64.748C107.755 77.72 117.231 86.92 130.111 86.92C138.759 86.92 142.991 82.044 145.015 77.444L144.371 77.168ZM175.53 42.576C165.962 42.576 162.466 54.904 161.822 63.644V43.404H147.286V43.864H154.278V85.54H147.286V86H169.274V85.54H162.19V65.852C162.19 57.112 166.33 44.324 172.494 44.324C178.29 44.324 174.426 51.684 179.578 51.684C181.878 51.684 182.798 49.936 182.798 47.912C182.798 44.876 180.038 42.576 175.53 42.576ZM204.279 42.576C192.595 42.576 183.763 51.776 183.763 64.748C183.763 77.72 193.147 86.92 206.027 86.92C214.675 86.92 219.459 82.044 221.391 77.444L220.839 77.168C218.999 81.768 213.847 86.46 206.027 86.46C195.079 86.46 192.227 73.672 192.227 64.748C192.227 63.92 192.227 63 192.227 62.08H222.587C222.955 49.2 213.571 42.576 204.279 42.576ZM192.319 61.62C192.779 53.156 195.539 42.944 204.279 42.944C211.547 42.944 214.031 52.512 214.123 61.62H192.319Z" fill="#292839"/>
<path d="M7.938 117.364C7.938 116.608 7.784 116.048 7.476 115.684C7.168 115.311 6.748 115.129 6.216 115.138H5.544V121.704C5.544 121.956 5.53933 122.199 5.53 122.432C5.52067 122.665 5.50667 122.843 5.488 122.964C5.64667 122.945 5.84733 122.936 6.09 122.936C6.342 122.927 6.51467 122.922 6.608 122.922V124H2.52V123.076C2.73467 123.067 2.912 123.039 3.052 122.992C3.20133 122.945 3.31333 122.838 3.388 122.67C3.472 122.502 3.514 122.231 3.514 121.858V115.152H2.87C2.338 115.161 1.918 115.343 1.61 115.698C1.302 116.053 1.148 116.608 1.148 117.364H0.224L0.294 114.2H8.778L8.862 117.364H7.938ZM9.82319 124V123.034C10.0845 123.034 10.2945 122.959 10.4532 122.81C10.6119 122.661 10.7425 122.465 10.8452 122.222C10.9572 121.979 11.0645 121.718 11.1672 121.438L13.8972 113.948H14.8772L17.8592 121.578C17.9152 121.718 17.9899 121.933 18.0832 122.222C18.1765 122.502 18.2325 122.749 18.2512 122.964C18.4099 122.945 18.5592 122.936 18.6992 122.936C18.8485 122.927 18.9699 122.922 19.0632 122.922V124H15.2972V123.076C15.6799 123.076 15.8945 122.959 15.9412 122.726C15.9879 122.483 15.9459 122.189 15.8152 121.844L15.5352 121.074L12.4972 121.13L12.2732 121.788C12.2265 121.909 12.1565 122.091 12.0632 122.334C11.9792 122.567 11.8999 122.763 11.8252 122.922C11.9745 122.903 12.1519 122.894 12.3572 122.894C12.5719 122.885 12.7259 122.88 12.8192 122.88V124H9.82319ZM12.8472 120.08H15.1852L14.5412 118.33C14.4199 117.994 14.3125 117.658 14.2192 117.322C14.1259 116.977 14.0559 116.673 14.0092 116.412H13.9952C13.9579 116.571 13.9019 116.809 13.8272 117.126C13.7525 117.443 13.6359 117.821 13.4772 118.26L12.8472 120.08ZM21.2187 123.076C21.4334 123.067 21.6107 123.039 21.7507 122.992C21.9001 122.945 22.0121 122.838 22.0867 122.67C22.1707 122.502 22.2127 122.231 22.2127 121.858V116.496C22.2127 116.244 22.2174 116.001 22.2267 115.768C22.2454 115.535 22.2594 115.357 22.2687 115.236C22.1194 115.245 21.9327 115.255 21.7087 115.264C21.4847 115.264 21.3214 115.269 21.2187 115.278V114.2C21.8814 114.191 22.5441 114.186 23.2067 114.186C23.8694 114.186 24.5321 114.181 25.1947 114.172C26.0161 114.163 26.7301 114.27 27.3367 114.494C27.9527 114.718 28.4241 115.063 28.7507 115.53C29.0867 115.997 29.2454 116.603 29.2267 117.35C29.2174 117.845 29.0634 118.325 28.7647 118.792C28.4754 119.259 28.0367 119.646 27.4487 119.954C26.8701 120.262 26.1374 120.43 25.2507 120.458C24.8681 120.467 24.5321 120.467 24.2427 120.458V121.69C24.2427 121.951 24.2381 122.199 24.2287 122.432C24.2194 122.665 24.2054 122.843 24.1867 122.964C24.2894 122.955 24.4201 122.95 24.5787 122.95C24.7374 122.941 24.8914 122.936 25.0407 122.936C25.1994 122.927 25.3114 122.922 25.3767 122.922V124H21.2187V123.076ZM24.2427 119.408C24.4387 119.436 24.6487 119.45 24.8727 119.45C25.6474 119.45 26.2027 119.259 26.5387 118.876C26.8841 118.484 27.0567 117.933 27.0567 117.224C27.0567 116.757 26.9914 116.384 26.8607 116.104C26.7394 115.824 26.5807 115.619 26.3847 115.488C26.1887 115.348 25.9834 115.259 25.7687 115.222C25.5541 115.175 25.3581 115.152 25.1807 115.152C24.8914 115.152 24.6627 115.213 24.4947 115.334C24.3267 115.455 24.2427 115.763 24.2427 116.258V119.408ZM38.7799 124V123.076C38.9946 123.067 39.1719 123.039 39.3119 122.992C39.4612 122.945 39.5732 122.838 39.6479 122.67C39.7319 122.502 39.7739 122.231 39.7739 121.858V120.64L37.1979 116.566C37.0672 116.351 36.9459 116.113 36.8339 115.852C36.7219 115.591 36.6659 115.385 36.6659 115.236C36.5166 115.245 36.3906 115.255 36.2879 115.264C36.1852 115.264 36.0826 115.269 35.9799 115.278V114.2H40.1099V115.124C39.7086 115.096 39.4146 115.175 39.2279 115.362C39.0412 115.539 39.0599 115.819 39.2839 116.202L40.3479 117.952C40.3946 118.027 40.4646 118.148 40.5579 118.316C40.6512 118.475 40.7446 118.647 40.8379 118.834C40.9406 119.011 41.0152 119.17 41.0619 119.31H41.0759C41.1226 119.198 41.2019 119.03 41.3139 118.806C41.4259 118.582 41.5659 118.293 41.7339 117.938L42.4619 116.51C42.5086 116.407 42.5739 116.277 42.6579 116.118C42.7419 115.95 42.8306 115.787 42.9239 115.628C43.0266 115.46 43.1199 115.325 43.2039 115.222C43.0546 115.231 42.8632 115.241 42.6299 115.25C42.3966 115.259 42.2286 115.269 42.1259 115.278V114.2H45.2199V115.124C44.8932 115.171 44.6132 115.306 44.3799 115.53C44.1466 115.745 43.8946 116.109 43.6239 116.622C43.3252 117.201 43.0219 117.784 42.7139 118.372C42.4059 118.96 42.1026 119.543 41.8039 120.122V121.704C41.8039 121.956 41.7992 122.199 41.7899 122.432C41.7806 122.665 41.7666 122.843 41.7479 122.964C41.9066 122.945 42.1072 122.936 42.3499 122.936C42.6019 122.927 42.7746 122.922 42.8679 122.922V124H38.7799ZM51.614 124.224C50.7273 124.224 49.9713 124.075 49.346 123.776C48.73 123.477 48.2306 123.081 47.848 122.586C47.4653 122.082 47.1853 121.527 47.008 120.92C46.8306 120.313 46.742 119.707 46.742 119.1C46.742 118.512 46.84 117.919 47.036 117.322C47.2413 116.715 47.5446 116.16 47.946 115.656C48.3566 115.152 48.87 114.746 49.486 114.438C50.102 114.13 50.8253 113.976 51.656 113.976C52.5053 113.976 53.238 114.13 53.854 114.438C54.47 114.746 54.974 115.157 55.366 115.67C55.758 116.174 56.0473 116.725 56.234 117.322C56.43 117.919 56.528 118.512 56.528 119.1C56.528 119.679 56.4253 120.267 56.22 120.864C56.024 121.461 55.7206 122.017 55.31 122.53C54.9086 123.034 54.4 123.445 53.784 123.762C53.168 124.07 52.4446 124.224 51.614 124.224ZM51.768 123.202C52.2533 123.202 52.6593 123.085 52.986 122.852C53.3126 122.609 53.574 122.297 53.77 121.914C53.966 121.531 54.106 121.116 54.19 120.668C54.274 120.211 54.316 119.767 54.316 119.338C54.316 118.479 54.2133 117.723 54.008 117.07C53.8026 116.417 53.49 115.903 53.07 115.53C52.6593 115.157 52.1273 114.979 51.474 114.998C50.998 115.007 50.5966 115.138 50.27 115.39C49.9433 115.633 49.682 115.95 49.486 116.342C49.29 116.725 49.15 117.145 49.066 117.602C48.982 118.059 48.94 118.503 48.94 118.932C48.94 119.371 48.9866 119.837 49.08 120.332C49.1826 120.827 49.3413 121.293 49.556 121.732C49.7706 122.171 50.06 122.525 50.424 122.796C50.788 123.067 51.236 123.202 51.768 123.202ZM62.7117 115.124C62.5064 115.133 62.329 115.161 62.1797 115.208C62.0304 115.255 61.9137 115.362 61.8297 115.53C61.755 115.689 61.7177 115.959 61.7177 116.342V120.192C61.7177 120.967 61.825 121.569 62.0397 121.998C62.2544 122.418 62.5297 122.712 62.8657 122.88C63.211 123.048 63.5704 123.141 63.9437 123.16C64.7184 123.188 65.3204 122.955 65.7497 122.46C66.179 121.965 66.3937 121.2 66.3937 120.164V116.496C66.3937 116.244 66.3984 116.001 66.4077 115.768C66.417 115.535 66.431 115.357 66.4497 115.236C66.3004 115.245 66.109 115.255 65.8757 115.264C65.6517 115.264 65.4884 115.269 65.3857 115.278V114.2H68.6337V115.124C68.4284 115.133 68.251 115.161 68.1017 115.208C67.9524 115.255 67.8357 115.362 67.7517 115.53C67.677 115.689 67.6397 115.959 67.6397 116.342V119.842C67.6397 120.915 67.467 121.774 67.1217 122.418C66.7857 123.053 66.319 123.515 65.7217 123.804C65.1337 124.084 64.4664 124.224 63.7197 124.224C62.9357 124.224 62.2824 124.112 61.7597 123.888C61.237 123.664 60.8217 123.351 60.5137 122.95C60.215 122.549 60.0004 122.087 59.8697 121.564C59.7484 121.041 59.6877 120.481 59.6877 119.884V116.496C59.6877 116.244 59.6924 116.001 59.7017 115.768C59.7204 115.535 59.7344 115.357 59.7437 115.236C59.5944 115.245 59.4077 115.255 59.1837 115.264C58.9597 115.264 58.7964 115.269 58.6937 115.278V114.2H62.7117V115.124ZM71.0664 124V123.076C71.2811 123.067 71.4584 123.039 71.5984 122.992C71.7477 122.945 71.8597 122.838 71.9344 122.67C72.0184 122.502 72.0604 122.231 72.0604 121.858V116.496C72.0604 116.244 72.0651 116.001 72.0744 115.768C72.0931 115.535 72.1071 115.357 72.1164 115.236C71.9671 115.245 71.7804 115.255 71.5564 115.264C71.3324 115.264 71.1691 115.269 71.0664 115.278V114.2C71.7291 114.191 72.3917 114.186 73.0544 114.186C73.7171 114.186 74.3797 114.181 75.0424 114.172C75.8637 114.163 76.5777 114.256 77.1844 114.452C77.7911 114.648 78.2577 114.965 78.5844 115.404C78.9111 115.843 79.0651 116.435 79.0464 117.182C79.0277 117.779 78.8177 118.321 78.4164 118.806C78.0151 119.291 77.4037 119.651 76.5824 119.884C76.7597 119.959 76.9324 120.08 77.1004 120.248C77.2777 120.416 77.4271 120.593 77.5484 120.78L78.2064 121.76C78.5144 122.236 78.7711 122.572 78.9764 122.768C79.1911 122.955 79.4571 123.057 79.7744 123.076V124H77.4644C77.2964 123.879 77.1284 123.706 76.9604 123.482C76.8017 123.249 76.6291 122.983 76.4424 122.684L75.4064 121.004C75.1731 120.631 74.9771 120.36 74.8184 120.192H74.0904V121.69C74.0904 121.951 74.0857 122.199 74.0764 122.432C74.0671 122.665 74.0531 122.843 74.0344 122.964C74.1371 122.955 74.2677 122.95 74.4264 122.95C74.5851 122.941 74.7391 122.936 74.8884 122.936C75.0471 122.927 75.1591 122.922 75.2244 122.922V124H71.0664ZM74.7624 119.184C75.5371 119.184 76.0924 119.011 76.4284 118.666C76.7644 118.311 76.9324 117.779 76.9324 117.07C76.9324 116.622 76.8624 116.272 76.7224 116.02C76.5824 115.759 76.4051 115.567 76.1904 115.446C75.9851 115.315 75.7751 115.236 75.5604 115.208C75.3457 115.171 75.1684 115.152 75.0284 115.152C74.7391 115.152 74.5104 115.213 74.3424 115.334C74.1744 115.455 74.0904 115.763 74.0904 116.258V119.128C74.1931 119.137 74.3004 119.151 74.4124 119.17C74.5244 119.179 74.6411 119.184 74.7624 119.184ZM90.2638 124.084L87.7718 116.538C87.6785 116.267 87.6038 116.02 87.5478 115.796C87.5011 115.572 87.4778 115.385 87.4778 115.236C87.3005 115.245 87.1418 115.255 87.0018 115.264C86.8711 115.264 86.7451 115.269 86.6238 115.278V114.2H90.7538V115.124C90.4085 115.115 90.1518 115.18 89.9838 115.32C89.8251 115.46 89.8065 115.745 89.9278 116.174C90.0678 116.706 90.2078 117.238 90.3478 117.77C90.4878 118.302 90.6278 118.834 90.7678 119.366C90.8518 119.683 90.9265 119.982 90.9918 120.262C91.0665 120.542 91.1458 120.906 91.2298 121.354H91.2438C91.2811 121.223 91.3371 121.023 91.4118 120.752C91.4865 120.481 91.5658 120.192 91.6498 119.884C91.7431 119.567 91.8225 119.282 91.8878 119.03C91.9625 118.769 92.0138 118.587 92.0418 118.484C92.2565 117.765 92.4711 117.051 92.6858 116.342C92.9098 115.623 93.1291 114.909 93.3438 114.2H94.6038C94.8745 115.059 95.1405 115.917 95.4018 116.776C95.6725 117.635 95.9385 118.493 96.1998 119.352C96.3025 119.669 96.3911 120.001 96.4658 120.346C96.5498 120.682 96.6291 121.023 96.7038 121.368H96.7178C96.8018 121.069 96.8858 120.761 96.9698 120.444C97.0631 120.117 97.1565 119.781 97.2498 119.436C97.3805 118.941 97.5111 118.451 97.6418 117.966C97.7725 117.481 97.9031 116.995 98.0338 116.51C98.0898 116.286 98.1645 116.057 98.2578 115.824C98.3511 115.581 98.4678 115.385 98.6078 115.236C98.4585 115.245 98.2671 115.255 98.0338 115.264C97.8005 115.264 97.6325 115.269 97.5298 115.278V114.2H100.68V115.124C100.362 115.133 100.082 115.25 99.8398 115.474C99.5971 115.689 99.3825 116.071 99.1958 116.622C98.8225 117.863 98.4445 119.105 98.0618 120.346C97.6791 121.587 97.2965 122.833 96.9138 124.084H95.6678L94.0158 119.072C93.8945 118.708 93.7918 118.353 93.7078 118.008C93.6331 117.653 93.5585 117.317 93.4838 117C93.4371 117.317 93.3811 117.625 93.3158 117.924C93.2505 118.213 93.1711 118.517 93.0778 118.834L91.4818 124.084H90.2638ZM101.132 124V123.034C101.394 123.034 101.604 122.959 101.762 122.81C101.921 122.661 102.052 122.465 102.154 122.222C102.266 121.979 102.374 121.718 102.476 121.438L105.206 113.948H106.186L109.168 121.578C109.224 121.718 109.299 121.933 109.392 122.222C109.486 122.502 109.542 122.749 109.56 122.964C109.719 122.945 109.868 122.936 110.008 122.936C110.158 122.927 110.279 122.922 110.372 122.922V124H106.606V123.076C106.989 123.076 107.204 122.959 107.25 122.726C107.297 122.483 107.255 122.189 107.124 121.844L106.844 121.074L103.806 121.13L103.582 121.788C103.536 121.909 103.466 122.091 103.372 122.334C103.288 122.567 103.209 122.763 103.134 122.922C103.284 122.903 103.461 122.894 103.666 122.894C103.881 122.885 104.035 122.88 104.128 122.88V124H101.132ZM104.156 120.08H106.494L105.85 118.33C105.729 117.994 105.622 117.658 105.528 117.322C105.435 116.977 105.365 116.673 105.318 116.412H105.304C105.267 116.571 105.211 116.809 105.136 117.126C105.062 117.443 104.945 117.821 104.786 118.26L104.156 120.08ZM113.713 124V123.076C113.927 123.067 114.105 123.039 114.245 122.992C114.394 122.945 114.506 122.838 114.581 122.67C114.665 122.502 114.707 122.231 114.707 121.858V120.64L112.131 116.566C112 116.351 111.879 116.113 111.767 115.852C111.655 115.591 111.599 115.385 111.599 115.236C111.449 115.245 111.323 115.255 111.221 115.264C111.118 115.264 111.015 115.269 110.913 115.278V114.2H115.043V115.124C114.641 115.096 114.347 115.175 114.161 115.362C113.974 115.539 113.993 115.819 114.217 116.202L115.281 117.952C115.327 118.027 115.397 118.148 115.491 118.316C115.584 118.475 115.677 118.647 115.771 118.834C115.873 119.011 115.948 119.17 115.995 119.31H116.009C116.055 119.198 116.135 119.03 116.247 118.806C116.359 118.582 116.499 118.293 116.667 117.938L117.395 116.51C117.441 116.407 117.507 116.277 117.591 116.118C117.675 115.95 117.763 115.787 117.857 115.628C117.959 115.46 118.053 115.325 118.137 115.222C117.987 115.231 117.796 115.241 117.563 115.25C117.329 115.259 117.161 115.269 117.059 115.278V114.2H120.153V115.124C119.826 115.171 119.546 115.306 119.313 115.53C119.079 115.745 118.827 116.109 118.557 116.622C118.258 117.201 117.955 117.784 117.647 118.372C117.339 118.96 117.035 119.543 116.737 120.122V121.704C116.737 121.956 116.732 122.199 116.723 122.432C116.713 122.665 116.699 122.843 116.681 122.964C116.839 122.945 117.04 122.936 117.283 122.936C117.535 122.927 117.707 122.922 117.801 122.922V124H113.713ZM134.624 117.364C134.624 116.608 134.47 116.048 134.162 115.684C133.854 115.311 133.434 115.129 132.902 115.138H132.23V121.704C132.23 121.956 132.226 122.199 132.216 122.432C132.207 122.665 132.193 122.843 132.174 122.964C132.333 122.945 132.534 122.936 132.776 122.936C133.028 122.927 133.201 122.922 133.294 122.922V124H129.206V123.076C129.421 123.067 129.598 123.039 129.738 122.992C129.888 122.945 130 122.838 130.074 122.67C130.158 122.502 130.2 122.231 130.2 121.858V115.152H129.556C129.024 115.161 128.604 115.343 128.296 115.698C127.988 116.053 127.834 116.608 127.834 117.364H126.91L126.98 114.2H135.464L135.548 117.364H134.624ZM142.554 124.224C141.667 124.224 140.911 124.075 140.286 123.776C139.67 123.477 139.17 123.081 138.788 122.586C138.405 122.082 138.125 121.527 137.948 120.92C137.77 120.313 137.682 119.707 137.682 119.1C137.682 118.512 137.78 117.919 137.976 117.322C138.181 116.715 138.484 116.16 138.886 115.656C139.296 115.152 139.81 114.746 140.426 114.438C141.042 114.13 141.765 113.976 142.596 113.976C143.445 113.976 144.178 114.13 144.794 114.438C145.41 114.746 145.914 115.157 146.306 115.67C146.698 116.174 146.987 116.725 147.174 117.322C147.37 117.919 147.468 118.512 147.468 119.1C147.468 119.679 147.365 120.267 147.16 120.864C146.964 121.461 146.66 122.017 146.25 122.53C145.848 123.034 145.34 123.445 144.724 123.762C144.108 124.07 143.384 124.224 142.554 124.224ZM142.708 123.202C143.193 123.202 143.599 123.085 143.926 122.852C144.252 122.609 144.514 122.297 144.71 121.914C144.906 121.531 145.046 121.116 145.13 120.668C145.214 120.211 145.256 119.767 145.256 119.338C145.256 118.479 145.153 117.723 144.948 117.07C144.742 116.417 144.43 115.903 144.01 115.53C143.599 115.157 143.067 114.979 142.414 114.998C141.938 115.007 141.536 115.138 141.21 115.39C140.883 115.633 140.622 115.95 140.426 116.342C140.23 116.725 140.09 117.145 140.006 117.602C139.922 118.059 139.88 118.503 139.88 118.932C139.88 119.371 139.926 119.837 140.02 120.332C140.122 120.827 140.281 121.293 140.496 121.732C140.71 122.171 141 122.525 141.364 122.796C141.728 123.067 142.176 123.202 142.708 123.202ZM162.367 117.364C162.367 116.608 162.213 116.048 161.905 115.684C161.597 115.311 161.177 115.129 160.645 115.138H159.973V121.704C159.973 121.956 159.969 122.199 159.959 122.432C159.95 122.665 159.936 122.843 159.917 122.964C160.076 122.945 160.277 122.936 160.519 122.936C160.771 122.927 160.944 122.922 161.037 122.922V124H156.949V123.076C157.164 123.067 157.341 123.039 157.481 122.992C157.631 122.945 157.743 122.838 157.817 122.67C157.901 122.502 157.943 122.231 157.943 121.858V115.152H157.299C156.767 115.161 156.347 115.343 156.039 115.698C155.731 116.053 155.577 116.608 155.577 117.364H154.653L154.723 114.2H163.207L163.291 117.364H162.367ZM165.635 124V123.076C165.849 123.067 166.027 123.039 166.167 122.992C166.316 122.945 166.428 122.838 166.503 122.67C166.587 122.502 166.629 122.231 166.629 121.858V116.496C166.629 116.244 166.633 116.001 166.643 115.768C166.661 115.535 166.675 115.357 166.685 115.236C166.535 115.245 166.349 115.255 166.125 115.264C165.901 115.264 165.737 115.269 165.635 115.278V114.2H169.653V115.124C169.447 115.133 169.27 115.161 169.121 115.208C168.971 115.255 168.855 115.362 168.771 115.53C168.696 115.689 168.659 115.959 168.659 116.342V118.526H172.509V116.496C172.509 116.244 172.513 116.001 172.523 115.768C172.532 115.535 172.546 115.357 172.565 115.236C172.415 115.245 172.229 115.255 172.005 115.264C171.781 115.264 171.617 115.269 171.515 115.278V114.2H175.533V115.124C175.327 115.133 175.15 115.161 175.001 115.208C174.851 115.255 174.735 115.362 174.651 115.53C174.576 115.689 174.539 115.959 174.539 116.342V121.704C174.539 121.956 174.534 122.199 174.525 122.432C174.515 122.665 174.501 122.843 174.483 122.964C174.632 122.945 174.819 122.936 175.043 122.936C175.276 122.927 175.439 122.922 175.533 122.922V124H171.515V123.076C171.729 123.067 171.907 123.039 172.047 122.992C172.196 122.945 172.308 122.838 172.383 122.67C172.467 122.502 172.509 122.231 172.509 121.858V119.59L168.659 119.632V121.704C168.659 121.956 168.654 122.199 168.645 122.432C168.635 122.665 168.621 122.843 168.603 122.964C168.752 122.945 168.939 122.936 169.163 122.936C169.396 122.927 169.559 122.922 169.653 122.922V124H165.635ZM183.088 120.626C183.088 120.234 183.027 119.954 182.906 119.786C182.784 119.609 182.616 119.497 182.402 119.45C182.196 119.403 181.968 119.385 181.716 119.394L181.352 119.408V121.704C181.352 121.956 181.347 122.194 181.338 122.418C181.328 122.642 181.314 122.815 181.296 122.936H183.172C183.452 122.936 183.722 122.875 183.984 122.754C184.245 122.623 184.46 122.413 184.628 122.124C184.796 121.825 184.88 121.424 184.88 120.92H185.79L185.72 124H178.328V123.076C178.542 123.067 178.72 123.039 178.86 122.992C179.009 122.945 179.121 122.838 179.196 122.67C179.28 122.502 179.322 122.231 179.322 121.858V116.496C179.322 116.244 179.326 116.001 179.336 115.768C179.354 115.535 179.368 115.357 179.378 115.236C179.228 115.245 179.042 115.255 178.818 115.264C178.594 115.264 178.43 115.269 178.328 115.278V114.2H185.328L185.412 116.916H184.488C184.488 116.403 184.399 116.015 184.222 115.754C184.044 115.493 183.825 115.32 183.564 115.236C183.302 115.143 183.046 115.101 182.794 115.11L182.29 115.124C182.094 115.124 181.926 115.152 181.786 115.208C181.646 115.255 181.538 115.367 181.464 115.544C181.389 115.712 181.352 115.978 181.352 116.342V118.442H182.99L182.934 117.224H184.012V120.626H183.088ZM200.78 117.364C200.78 116.608 200.626 116.048 200.318 115.684C200.01 115.311 199.59 115.129 199.058 115.138H198.386V121.704C198.386 121.956 198.381 122.199 198.372 122.432C198.362 122.665 198.348 122.843 198.33 122.964C198.488 122.945 198.689 122.936 198.932 122.936C199.184 122.927 199.356 122.922 199.45 122.922V124H195.362V123.076C195.576 123.067 195.754 123.039 195.894 122.992C196.043 122.945 196.155 122.838 196.23 122.67C196.314 122.502 196.356 122.231 196.356 121.858V115.152H195.712C195.18 115.161 194.76 115.343 194.452 115.698C194.144 116.053 193.99 116.608 193.99 117.364H193.066L193.136 114.2H201.62L201.704 117.364H200.78ZM208.709 124.224C207.823 124.224 207.067 124.075 206.441 123.776C205.825 123.477 205.326 123.081 204.943 122.586C204.561 122.082 204.281 121.527 204.103 120.92C203.926 120.313 203.837 119.707 203.837 119.1C203.837 118.512 203.935 117.919 204.131 117.322C204.337 116.715 204.64 116.16 205.041 115.656C205.452 115.152 205.965 114.746 206.581 114.438C207.197 114.13 207.921 113.976 208.751 113.976C209.601 113.976 210.333 114.13 210.949 114.438C211.565 114.746 212.069 115.157 212.461 115.67C212.853 116.174 213.143 116.725 213.329 117.322C213.525 117.919 213.623 118.512 213.623 119.1C213.623 119.679 213.521 120.267 213.315 120.864C213.119 121.461 212.816 122.017 212.405 122.53C212.004 123.034 211.495 123.445 210.879 123.762C210.263 124.07 209.54 124.224 208.709 124.224ZM208.863 123.202C209.349 123.202 209.755 123.085 210.081 122.852C210.408 122.609 210.669 122.297 210.865 121.914C211.061 121.531 211.201 121.116 211.285 120.668C211.369 120.211 211.411 119.767 211.411 119.338C211.411 118.479 211.309 117.723 211.103 117.07C210.898 116.417 210.585 115.903 210.165 115.53C209.755 115.157 209.223 114.979 208.569 114.998C208.093 115.007 207.692 115.138 207.365 115.39C207.039 115.633 206.777 115.95 206.581 116.342C206.385 116.725 206.245 117.145 206.161 117.602C206.077 118.059 206.035 118.503 206.035 118.932C206.035 119.371 206.082 119.837 206.175 120.332C206.278 120.827 206.437 121.293 206.651 121.732C206.866 122.171 207.155 122.525 207.519 122.796C207.883 123.067 208.331 123.202 208.863 123.202ZM216.043 123.076C216.258 123.067 216.435 123.039 216.575 122.992C216.724 122.945 216.836 122.838 216.911 122.67C216.995 122.502 217.037 122.231 217.037 121.858V116.496C217.037 116.244 217.042 116.001 217.051 115.768C217.07 115.535 217.084 115.357 217.093 115.236C216.944 115.245 216.757 115.255 216.533 115.264C216.309 115.264 216.146 115.269 216.043 115.278V114.2C216.706 114.191 217.368 114.186 218.031 114.186C218.694 114.186 219.356 114.181 220.019 114.172C220.84 114.163 221.554 114.27 222.161 114.494C222.777 114.718 223.248 115.063 223.575 115.53C223.911 115.997 224.07 116.603 224.051 117.35C224.042 117.845 223.888 118.325 223.589 118.792C223.3 119.259 222.861 119.646 222.273 119.954C221.694 120.262 220.962 120.43 220.075 120.458C219.692 120.467 219.356 120.467 219.067 120.458V121.69C219.067 121.951 219.062 122.199 219.053 122.432C219.044 122.665 219.03 122.843 219.011 122.964C219.114 122.955 219.244 122.95 219.403 122.95C219.562 122.941 219.716 122.936 219.865 122.936C220.024 122.927 220.136 122.922 220.201 122.922V124H216.043V123.076ZM219.067 119.408C219.263 119.436 219.473 119.45 219.697 119.45C220.472 119.45 221.027 119.259 221.363 118.876C221.708 118.484 221.881 117.933 221.881 117.224C221.881 116.757 221.816 116.384 221.685 116.104C221.564 115.824 221.405 115.619 221.209 115.488C221.013 115.348 220.808 115.259 220.593 115.222C220.378 115.175 220.182 115.152 220.005 115.152C219.716 115.152 219.487 115.213 219.319 115.334C219.151 115.455 219.067 115.763 219.067 116.258V119.408Z" fill="#A6A2A6"/>
</svg>
